<?xml version="1.0" encoding="utf-8"?>
<!-- Generator: Adobe Illustrator 21.1.0, SVG Export Plug-In . SVG Version: 6.00 Build 0)  -->
<svg version="1.1" id="form" xmlns="http://www.w3.org/2000/svg" xmlns:xlink="http://www.w3.org/1999/xlink" x="0px" y="0px"
	 viewBox="0 0 100 86.2" style="enable-background:new 0 0 100 86.2;" xml:space="preserve">
<g id="border">
	<title>heart</title>
	<path d="M72.4,3C63,3,54.2,10.4,50,14.5C45.8,10.4,37,3,27.6,3C11.6,3,2,12.4,2,28c0,12.9,11.8,23.6,12.2,24l33.4,32.2
		c1.3,1.3,3.4,1.3,4.7,0l33.3-32.1C86.2,51.6,98,40.9,98,28C98,12.4,88.4,3,72.4,3z M81,47.1L50,77L18.9,47c-0.1-0.1-10-9.2-10-19
		c0-15,10.2-18.2,18.7-18.2c8,0,17,8.6,19.8,11.9c0.1,0.1,0.2,0.2,0.3,0.3c1.4,1.3,3.7,1.2,5-0.3c2.8-3.3,11.8-11.9,19.8-11.9
		c8.6,0,18.7,3.2,18.7,18.2C91.1,37.8,81.2,46.9,81,47.1z"/>
</g>
<g id="fill">
	<path d="M73.5,7.9c-8.4,0-17.8,9-20.7,12.5c-1.4,1.5-3.7,1.6-5.2,0.3c-0.1-0.1-0.2-0.2-0.3-0.3C44.3,16.9,34.9,7.9,26.5,7.9
		c-9,0-19.6,3.3-19.6,19c0,10.3,10.4,19.8,10.5,19.9L50,78.3l32.5-31.4c0.2-0.2,10.6-9.7,10.6-20C93.1,11.2,82.4,7.9,73.5,7.9z"/>
	<path d="M82.5,46.9L50,78.3L17.4,46.8c-0.1-0.1-10.5-9.7-10.5-19.9c0-15.7,10.7-19,19.6-19c8.4,0,17.8,9,20.7,12.5
		c0.1,0.1,0.2,0.2,0.3,0.3c1.5,1.4,3.9,1.3,5.2-0.3c2.9-3.5,12.3-12.5,20.7-12.5c9,0,19.6,3.3,19.6,19
		C93.1,37.2,82.7,46.8,82.5,46.9z"/>
</g>
</svg>
