<svg xmlns="http://www.w3.org/2000/svg" width="100" height="86.19" viewBox="0 0 100 86.19"><title>heart</title><path d="M85.7,51.12,52.36,83.23a3.36,3.36,0,0,1-4.71,0L14.25,51C13.82,50.64,2,39.88,2,27,2,11.36,11.63,2,27.63,2,37,2,45.77,9.38,50,13.55,54.23,9.38,63,2,72.37,2,88.37,2,98,11.36,98,27,98,39.88,86.18,50.64,85.7,51.12ZM72.37,8.84c-8,0-17,8.62-19.75,11.94a3.53,3.53,0,0,1-5.24,0C44.59,17.46,35.6,8.84,27.63,8.84,19.07,8.84,8.9,12,8.9,27c0,9.79,9.9,18.89,10,19L50,76,81,46.09C81.2,45.93,91.1,36.83,91.1,27,91.1,12,80.93,8.84,72.37,8.84Z" style="fill:#70b42c"/></svg>