<?xml version="1.0" encoding="UTF-8" standalone="no"?><!DOCTYPE svg PUBLIC "-//W3C//DTD SVG 1.1//EN" "http://www.w3.org/Graphics/SVG/1.1/DTD/svg11.dtd"><svg width="100%" height="100%" viewBox="0 0 50 44" version="1.1" xmlns="http://www.w3.org/2000/svg" xmlns:xlink="http://www.w3.org/1999/xlink" xml:space="preserve" xmlns:serif="http://www.serif.com/" style="fill-rule:evenodd;clip-rule:evenodd;stroke-linejoin:round;stroke-miterlimit:1.41421;"><path id="outline" d="M13.488,0.544c4.298,0.106 8.2,2.834 11.447,6.116c6.656,-6.726 7.902,-6.804 14.153,-5.951c6.822,0.931 11.788,8.096 10.007,15.339c-0.887,3.611 -3.092,6.822 -5.836,9.343l-18.3,17.674c-11.897,-11.498 -28.111,-21.786 -23.813,-34.795c1.614,-4.886 6.929,-7.771 12.342,-7.726Zm22.999,6.446c-3.493,0.087 -7.737,5.049 -7.737,5.049c-2.133,2.483 -5.91,1.742 -8.376,-0.823c-3.251,-3.285 -8.893,-6.34 -12.243,-2.495c-2.709,3.108 -0.777,8.439 2.937,11.954l13.891,13.425c4.73,-4.57 9.457,-9.141 14.188,-13.708c4.64,-4.479 6.198,-13.475 -2.66,-13.402Z" /><path id="inner" d="M25.025,10.154c0,0 13.985,-11.243 18.867,-3.259c7.289,11.92 -18.695,32.073 -18.695,32.073c0,0 -30.959,-23.583 -20.153,-31.73c10.805,-8.147 19.981,2.916 19.981,2.916Z" /></svg>