<svg xmlns="http://www.w3.org/2000/svg" width="325.74" height="56.91" viewBox="0 0 325.74 56.91"><title>logo</title><path d="M254.78,39.11a.87.87,0,0,1-.87-.87V26.5a6.28,6.28,0,0,0-1.1-4.1,4.17,4.17,0,0,0-3.36-1.29,5.49,5.49,0,0,0-4.37,1.63q-1.41,1.63-1.41,5.11v10.4a.87.87,0,0,1-.87.87h-.05a.87.87,0,0,1-.87-.87V26q0-4.86-4.46-4.86a5.25,5.25,0,0,0-4.4,1.76q-1.38,1.76-1.38,5.63v9.75a.87.87,0,0,1-.87.87h0a.87.87,0,0,1-.87-.87V19.89h1.45l.37,2.64h.11a5.51,5.51,0,0,1,2.26-2.22,6.75,6.75,0,0,1,3.24-.79q4.54,0,5.84,3.41h.07a6.54,6.54,0,0,1,2.52-2.53,7.26,7.26,0,0,1,3.6-.88,6.17,6.17,0,0,1,4.72,1.68q1.57,1.68,1.57,5.34V38.25a.87.87,0,0,1-.87.87Z" /><path d="M272.46,39.11l-.44-3h-.14a9.13,9.13,0,0,1-3,2.63,8,8,0,0,1-3.62.77,6.26,6.26,0,0,1-4.4-1.45,5.19,5.19,0,0,1-1.57-4,5,5,0,0,1,.94-3.08q2.17-2.81,8.18-2.93l3.66-.11V26.61A6.54,6.54,0,0,0,271,22.47a4.32,4.32,0,0,0-3.59-1.4,11.53,11.53,0,0,0-4.77,1.12.82.82,0,0,1-1.1-.41h0a.82.82,0,0,1,.42-1.07,14.3,14.3,0,0,1,5.52-1.16,6.24,6.24,0,0,1,4.73,1.65q1.57,1.64,1.57,5.13V39.11Zm-7.08-1.24a6.6,6.6,0,0,0,4.86-1.76A6.57,6.57,0,0,0,272,31.23V29.33l-3.36.14q-4.05.2-5.78,1.27a3.64,3.64,0,0,0-1.72,3.33,3.58,3.58,0,0,0,1.1,2.8A4.49,4.49,0,0,0,265.38,37.88Z" /><path d="M280.6,30.68l9.27-10.18a1.85,1.85,0,0,1,1.37-.6h1.31L285,28.1l8.22,11h-1.33a1.55,1.55,0,0,1-1.24-.62l-6.84-9.09-3.15,2.87v6a.88.88,0,0,1-.88.88h0a.88.88,0,0,1-.88-.88V12.47a.88.88,0,0,1,.88-.88h0a.88.88,0,0,1,.88.88V25.39l-.12,5.29Z" /><path d="M303.09,39.47a8.38,8.38,0,0,1-6.54-2.58q-2.34-2.58-2.34-7.23a11.28,11.28,0,0,1,2.26-7.37,7.47,7.47,0,0,1,6.1-2.77,6.59,6.59,0,0,1,5.36,2.37,9.79,9.79,0,0,1,2,6.44v1.41H296.05a9.09,9.09,0,0,0,1.85,6,6.51,6.51,0,0,0,5.19,2.09,16.12,16.12,0,0,0,2.89-.23,17.54,17.54,0,0,0,3.16-1v.88a1.05,1.05,0,0,1-.66,1,13.06,13.06,0,0,1-2.35.69A16.72,16.72,0,0,1,303.09,39.47Zm-.51-18.39a5.76,5.76,0,0,0-4.46,1.83,8.63,8.63,0,0,0-2,5.28H308A8.39,8.39,0,0,0,306.59,23,4.78,4.78,0,0,0,302.58,21.07Z" /><path d="M321.69,19.52a14,14,0,0,1,1.76.12.82.82,0,0,1,.69,1v0a.84.84,0,0,1-1,.65,10.49,10.49,0,0,0-1.68-.13,4.84,4.84,0,0,0-4,2.09,8.5,8.5,0,0,0-1.57,5.27v9.74a.88.88,0,0,1-.88.88h0a.88.88,0,0,1-.88-.88V19.89h1.49l.18,3.47h.12a8.14,8.14,0,0,1,2.53-3A5.92,5.92,0,0,1,321.69,19.52Z" /><path d="M98.31,39.47A7.21,7.21,0,0,1,92.44,37q-2.09-2.51-2.09-7.25t2.09-7.53a7.15,7.15,0,0,1,6-2.66,7,7,0,0,1,6.24,3.08h.11l.32-2.71h1.49V46.95a.87.87,0,0,1-.87.87h0a.87.87,0,0,1-.87-.87V40.49q0-2.16.11-4.39h-.11A7.13,7.13,0,0,1,98.31,39.47Zm0-1.56q3.5,0,5-1.93t1.5-6.47V29.3q0-4.33-1.5-6.26a5.7,5.7,0,0,0-4.79-1.93,5.51,5.51,0,0,0-4.73,2.19q-1.62,2.19-1.62,6.44,0,4.05,1.58,6.11A5.42,5.42,0,0,0,98.35,37.91Z" /><path d="M112,19.89a.87.87,0,0,1,.87.87V32.34a6.08,6.08,0,0,0,1.22,4.22,4.93,4.93,0,0,0,3.79,1.32q3.43,0,5-1.73t1.62-5.64V20.75a.87.87,0,0,1,.87-.87h0a.87.87,0,0,1,.87.87V39.11h-1.49l-.32-2.65h-.11q-1.87,3-6.67,3-6.56,0-6.56-7V20.75a.87.87,0,0,1,.87-.87Z" /><path d="M130.82,14.55q0-1.7,1.11-1.7a1,1,0,0,1,.86.44,2.18,2.18,0,0,1,.31,1.26,2.23,2.23,0,0,1-.31,1.26,1,1,0,0,1-.86.46Q130.81,16.26,130.82,14.55Zm1.12,24.57h0a.88.88,0,0,1-.88-.88V20.75a.87.87,0,0,1,.87-.87h0a.87.87,0,0,1,.87.87V38.24A.88.88,0,0,1,131.94,39.11Z" /><path d="M145.26,39.47a8.23,8.23,0,0,1-6.46-2.6,10.47,10.47,0,0,1-2.34-7.25q0-4.78,2.42-7.44a8.52,8.52,0,0,1,6.63-2.66,13.39,13.39,0,0,1,4,.6.82.82,0,0,1,.52,1h0a.83.83,0,0,1-1,.54,12.84,12.84,0,0,0-3.54-.58,6.58,6.58,0,0,0-5.36,2.18,9.57,9.57,0,0,0-1.82,6.29,9.28,9.28,0,0,0,1.82,6.09,6.24,6.24,0,0,0,5.09,2.2,12.51,12.51,0,0,0,4.86-.94v1a1,1,0,0,1-.6.91A12.05,12.05,0,0,1,145.26,39.47Z" /><path d="M154.84,30.68l9.39-10.32a1.42,1.42,0,0,1,1.05-.47h1.49l-7.57,8.21,8.22,11H166a1.41,1.41,0,0,1-1.13-.56L158,29.4l-3.15,2.87v6a.88.88,0,0,1-.88.88h0a.88.88,0,0,1-.88-.88V12.47a.88.88,0,0,1,.88-.88h0a.88.88,0,0,1,.88.88V25.39l-.12,5.29Z" /><path d="M175.45,38.94h0a2.7,2.7,0,0,1-2.7-2.7V13.79a2.38,2.38,0,0,1,2.38-2.38h.64a2.38,2.38,0,0,1,2.38,2.38V36.24A2.7,2.7,0,0,1,175.45,38.94Z" /><path d="M182.46,14.05q0-2.63,2.94-2.63t2.94,2.63a2.57,2.57,0,0,1-.73,2,3.09,3.09,0,0,1-2.2.7Q182.46,16.7,182.46,14.05Zm3,24.89h-.19a2.6,2.6,0,0,1-2.6-2.6V21.56a2.4,2.4,0,0,1,2.4-2.4h.6a2.4,2.4,0,0,1,2.4,2.4V36.34A2.6,2.6,0,0,1,185.48,38.94Z" /><path d="M206.42,33.06a5.44,5.44,0,0,1-2.11,4.63q-2.11,1.59-6.32,1.59A19.86,19.86,0,0,1,194.3,39q-.74-.14-1.43-.35a2,2,0,0,1-1.41-1.92v-.18A2,2,0,0,1,194,34.63l.86.24a13.71,13.71,0,0,0,3.32.48q2.94,0,2.94-1.7a1.42,1.42,0,0,0-.39-1,5.64,5.64,0,0,0-1.34-.9q-1-.5-2.55-1.18a16,16,0,0,1-3.35-1.77,5,5,0,0,1-1.56-1.87,6.17,6.17,0,0,1-.49-2.59,4.7,4.7,0,0,1,2-4.08,10,10,0,0,1,5.79-1.44,16.14,16.14,0,0,1,4.88.75,2.07,2.07,0,0,1,1.25,2.77l0,0a2.09,2.09,0,0,1-2.64,1.14q-.63-.22-1.21-.4a7.6,7.6,0,0,0-1.75-.3q-3-.17-3,1.27a1.52,1.52,0,0,0,.77,1.26,20.94,20.94,0,0,0,3.37,1.57,15.67,15.67,0,0,1,3.4,1.75,5.19,5.19,0,0,1,1.59,1.87A5.75,5.75,0,0,1,206.42,33.06Z" /><path d="M219,35a9.22,9.22,0,0,0,1.87-.22A1.28,1.28,0,0,1,222.36,36v1.45a1.3,1.3,0,0,1-.91,1.24,13.29,13.29,0,0,1-4,.55q-3.24,0-4.71-1.64a7.12,7.12,0,0,1-1.48-4.91V24.5a1.29,1.29,0,0,0-1.29-1.29h0a1.29,1.29,0,0,1-1.29-1.29v-.26a1.29,1.29,0,0,1,.62-1.1l2-1.19a1.29,1.29,0,0,0,.54-.65l1.09-2.91a1.29,1.29,0,0,1,1.21-.84h1.26a1.29,1.29,0,0,1,1.29,1.29v1.63a1.29,1.29,0,0,0,1.29,1.29h3a1.29,1.29,0,0,1,1.29,1.29v1.47a1.29,1.29,0,0,1-1.29,1.29h-3a1.29,1.29,0,0,0-1.29,1.29v8.24a2.1,2.1,0,0,0,.65,1.7A2.55,2.55,0,0,0,219,35Z" /><path d="M40.93,54.16a2.18,2.18,0,0,1-1.55-.64L18.66,32.8a2.19,2.19,0,0,1,3.09-3.09L42.47,50.43a2.19,2.19,0,0,1-1.55,3.73Z" /><path d="M61.29,53.18a2.18,2.18,0,0,1-1.55-.64L30.55,23.36a2.19,2.19,0,0,1,3.09-3.09L62.83,49.45a2.19,2.19,0,0,1-1.55,3.73Z" /><path d="M51,54a2.18,2.18,0,0,1-1.55-.64L24.18,28.06A2.19,2.19,0,0,1,27.28,25l25.29,25.3A2.19,2.19,0,0,1,51,54Z" /><path d="M26.29,51.42A24.23,24.23,0,0,1,1.59,27,24.18,24.18,0,0,1,25.91,2.75c13.48,0,24.32,10.45,24.32,24.67a2,2,0,0,1-2.08,2.05,2.15,2.15,0,0,1-2.29-2.05c0-12-9-20.29-20.07-20.29A19.78,19.78,0,0,0,6,27.09c0,11.07,8.29,20,20.32,20,0,0,2.46,0,2.63,1.69C29.16,51.06,26.29,51.42,26.29,51.42Z" /></svg>