<?xml version="1.0" encoding="utf-8"?>
<!-- Generator: Adobe Illustrator 21.1.0, SVG Export Plug-In . SVG Version: 6.00 Build 0)  -->
<svg version="1.1" id="Ebene_1" xmlns="http://www.w3.org/2000/svg" xmlns:xlink="http://www.w3.org/1999/xlink" x="0px" y="0px"
	 viewBox="0 0 232.8 53.2" style="enable-background:new 0 0 232.8 53.2;" xml:space="preserve">
<style type="text/css">
	.st0{fill:#111111;}
	.st1{fill:#008DFF;}
	.st2{fill:#FFFFFF;}
</style>
<g>
	<path class="st0" d="M183,36.5c-0.3,0-0.6-0.3-0.6-0.6v-8c0.1-1-0.2-2-0.7-2.8c-0.6-0.6-1.4-0.9-2.3-0.9c-1.1-0.1-2.2,0.3-3,1.1
		c-0.6,0.7-1,1.9-1,3.5v7.1c0,0.3-0.3,0.6-0.6,0.6l0,0c-0.3,0-0.6-0.3-0.6-0.6v-8.3c0-2.2-1-3.3-3-3.3c-1.1-0.1-2.2,0.3-3,1.2
		c-0.6,0.8-0.9,2.1-0.9,3.8v6.6c0,0.3-0.3,0.6-0.6,0.6l0,0c-0.3,0-0.6-0.3-0.6-0.6V23.4h1l0.3,1.8h0.1c0.4-0.6,0.9-1.2,1.5-1.5
		c0.7-0.4,1.4-0.5,2.2-0.5c2.1,0,3.4,0.8,4,2.3l0,0c0.4-0.7,1-1.3,1.7-1.7c0.7-0.4,1.6-0.6,2.4-0.6c1.2-0.1,2.3,0.3,3.2,1.1
		c0.7,0.8,1.1,2,1.1,3.6v8C183.6,36.2,183.3,36.5,183,36.5L183,36.5z"/>
	<path class="st0" d="M195,36.5l-0.3-2h-0.1c-0.5,0.7-1.2,1.3-2,1.8c-0.8,0.4-1.6,0.5-2.5,0.5c-1.1,0.1-2.2-0.3-3-1
		c-0.7-0.7-1.1-1.7-1.1-2.7c0-0.7,0.2-1.5,0.6-2.1c1-1.3,2.8-1.9,5.6-2l2.5-0.1V28c0.1-1-0.2-2-0.7-2.8c-0.6-0.7-1.5-1-2.4-1
		c-1.1,0-2.2,0.3-3.2,0.8c-0.3,0.1-0.6,0-0.7-0.3l0,0l0,0c-0.1-0.3,0-0.6,0.3-0.7c1.2-0.5,2.5-0.8,3.7-0.8c1.2-0.1,2.3,0.3,3.2,1.1
		c0.7,0.7,1.1,1.9,1.1,3.5v8.7H195z M190.2,35.6c1.2,0.1,2.4-0.4,3.3-1.2c0.8-0.9,1.3-2.1,1.2-3.3v-1.3l-2.3,0.1
		c-1.8,0.1-3.1,0.4-3.9,0.9c-0.8,0.5-1.2,1.3-1.2,2.3c0,0.7,0.2,1.4,0.7,1.9C188.7,35.5,189.4,35.7,190.2,35.6L190.2,35.6z"/>
	<path class="st0" d="M200.5,30.8l6.3-6.9c0.2-0.3,0.6-0.4,0.9-0.4h0.9l-5.1,5.6l5.6,7.5h-0.9c-0.3,0-0.6-0.2-0.8-0.4l-4.6-6.2
		l-2.1,1.9V36c0,0.3-0.3,0.6-0.6,0.6l0,0l0,0c-0.3,0-0.6-0.3-0.6-0.6l0,0V18.4c0-0.3,0.3-0.6,0.6-0.6l0,0l0,0c0.3,0,0.6,0.3,0.6,0.6
		l0,0v8.8L200.5,30.8L200.5,30.8z"/>
	<path class="st0" d="M215.8,36.7c-1.7,0.1-3.3-0.5-4.4-1.8c-1.1-1.2-1.6-2.8-1.6-4.9c-0.1-1.8,0.5-3.6,1.5-5c1-1.2,2.5-1.9,4.1-1.9
		c1.4-0.1,2.7,0.5,3.6,1.6c1,1.3,1.4,2.8,1.4,4.4v1H211c-0.1,1.5,0.4,2.9,1.3,4.1c0.9,1,2.2,1.5,3.5,1.4c0.7,0,1.3,0,2-0.2
		s1.5-0.4,2.1-0.7v0.6c0,0.3-0.2,0.6-0.4,0.7c-0.5,0.2-1.1,0.4-1.6,0.5C217.2,36.7,216.5,36.7,215.8,36.7z M215.5,24.2
		c-1.1,0-2.2,0.4-3,1.2c-0.8,1-1.3,2.3-1.4,3.6h8.1c0.1-1.2-0.3-2.5-1-3.5C217.5,24.7,216.5,24.2,215.5,24.2L215.5,24.2z"/>
	<path class="st0" d="M228.4,23.2c0.4,0,0.8,0,1.2,0.1c0.3,0,0.5,0.3,0.5,0.6c0,0,0,0,0,0.1l0,0c-0.1,0.3-0.4,0.5-0.7,0.4l0,0
		c-0.4-0.1-0.8-0.1-1.1-0.1c-1.1,0-2.1,0.5-2.7,1.4c-0.7,1-1.1,2.3-1.1,3.6v6.6c0,0.3-0.3,0.6-0.6,0.6l0,0l0,0
		c-0.3,0-0.6-0.3-0.6-0.6l0,0V23.4h1l0.1,2.4h0.1c0.4-0.8,1-1.5,1.7-2C226.9,23.4,227.7,23.2,228.4,23.2z"/>
	<path class="st0" d="M76.7,36.7c-1.5,0.1-3-0.5-4-1.7c-0.9-1.1-1.4-2.8-1.4-4.9s0.5-3.9,1.4-5.1c1-1.2,2.5-1.9,4.1-1.8
		c1.7-0.1,3.3,0.7,4.2,2.1h0.1l0.2-1.8h1v18.3c0,0.3-0.3,0.6-0.6,0.6l0,0l0,0c-0.3,0-0.6-0.3-0.6-0.6l0,0v-4.4c0-1,0-2,0.1-3h-0.1
		C80.3,36,78.5,36.9,76.7,36.7z M76.7,35.7c1.6,0,2.7-0.4,3.4-1.3s1-2.3,1-4.4v-0.1c0-2-0.3-3.4-1-4.3c-0.8-0.9-2-1.4-3.3-1.3
		c-1.3-0.1-2.5,0.5-3.2,1.5s-1.1,2.4-1.1,4.4c0,1.8,0.4,3.2,1.1,4.1C74.4,35.2,75.6,35.8,76.7,35.7L76.7,35.7z"/>
	<path class="st0" d="M86,23.4c0.3,0,0.6,0.3,0.6,0.6l0,0v7.9c-0.1,1,0.2,2,0.8,2.9c0.7,0.7,1.6,1,2.6,0.9c1.6,0,2.7-0.4,3.4-1.2
		c0.7-0.8,1.1-2.1,1.1-3.8V24c0-0.3,0.3-0.6,0.6-0.6l0,0l0,0c0.3,0,0.6,0.3,0.6,0.6l0,0v12.5h-1l-0.2-1.8h-0.1c-0.8,1.4-2.4,2-4.5,2
		c-3,0-4.5-1.6-4.5-4.8v-8C85.4,23.7,85.7,23.4,86,23.4L86,23.4L86,23.4z"/>
	<path class="st0" d="M98.8,19.8c0-0.8,0.3-1.2,0.8-1.2c0.2,0,0.5,0.1,0.6,0.3c0.2,0.3,0.2,0.6,0.2,0.9s-0.1,0.6-0.2,0.9
		c-0.1,0.2-0.3,0.3-0.6,0.3C99.1,21,98.8,20.6,98.8,19.8z M99.6,36.5L99.6,36.5c-0.3,0-0.6-0.3-0.6-0.6l0,0V24
		c0-0.3,0.3-0.6,0.6-0.6l0,0c0.3,0,0.6,0.3,0.6,0.6v11.9C100.2,36.2,99.9,36.5,99.6,36.5L99.6,36.5z"/>
	<path class="st0" d="M108.6,36.7c-1.7,0.1-3.3-0.6-4.4-1.8c-1.1-1.4-1.7-3.1-1.6-4.9c0-2.2,0.5-3.8,1.6-5.1
		c1.2-1.2,2.8-1.9,4.5-1.8c0.9,0,1.8,0.1,2.7,0.4c0.3,0.1,0.4,0.4,0.4,0.7l0,0c-0.1,0.3-0.4,0.4-0.7,0.4c-0.8-0.2-1.6-0.4-2.4-0.4
		c-1.4-0.1-2.7,0.5-3.6,1.5c-0.9,1.2-1.3,2.7-1.2,4.3c-0.1,1.5,0.3,2.9,1.2,4.1c0.9,1,2.1,1.6,3.5,1.5c1.1,0,2.3-0.2,3.3-0.6v0.7
		c0,0.3-0.2,0.5-0.4,0.6C110.6,36.6,109.6,36.8,108.6,36.7z"/>
	<path class="st0" d="M115.1,30.8l6.4-7c0.2-0.2,0.4-0.3,0.7-0.3h1l-5.1,5.6l5.6,7.5h-1c-0.3,0-0.6-0.1-0.8-0.4l-4.7-6.2l-2.1,1.9
		V36c0,0.3-0.3,0.6-0.6,0.6l0,0l0,0c-0.3,0-0.6-0.3-0.6-0.6l0,0V18.4c0-0.3,0.3-0.6,0.6-0.6l0,0l0,0c0.3,0,0.6,0.3,0.6,0.6l0,0v8.8
		V30.8L115.1,30.8z"/>
	<path class="st0" d="M129.1,36.4L129.1,36.4c-1,0-1.8-0.8-1.8-1.8V19.3c0-0.9,0.7-1.6,1.6-1.6l0,0h0.4c0.9,0,1.6,0.7,1.6,1.6l0,0
		v15.2C131,35.6,130.1,36.4,129.1,36.4L129.1,36.4z"/>
	<path class="st0" d="M133.9,19.5c0-1.2,0.7-1.8,2-1.8s2,0.6,2,1.8c0,0.5-0.1,1-0.5,1.4c-0.4,0.3-1,0.5-1.5,0.5
		C134.6,21.3,133.9,20.7,133.9,19.5z M135.9,36.4h-0.1c-1,0-1.8-0.8-1.8-1.8l0,0v-10c0-0.9,0.7-1.6,1.6-1.6h0.4
		c0.9,0,1.6,0.7,1.6,1.6v10C137.7,35.6,136.9,36.4,135.9,36.4L135.9,36.4z"/>
	<path class="st0" d="M150.2,32.4c0.1,1.2-0.5,2.4-1.4,3.1c-1,0.7-2.4,1.1-4.3,1.1c-0.8,0-1.7,0-2.5-0.2c-0.3-0.1-0.7-0.1-1-0.2
		c-0.6-0.2-1-0.7-1-1.3v-0.1c0-0.8,0.6-1.4,1.4-1.4c0.1,0,0.2,0,0.4,0.1l0.6,0.2c0.7,0.2,1.5,0.3,2.3,0.3c1.3,0,2-0.4,2-1.2
		c0-0.3-0.1-0.5-0.3-0.7c-0.3-0.2-0.6-0.5-0.9-0.6c-0.5-0.2-1-0.5-1.7-0.8c-0.8-0.3-1.6-0.7-2.3-1.2c-0.5-0.3-0.8-0.8-1.1-1.3
		c-0.2-0.6-0.3-1.2-0.3-1.8c-0.1-1.1,0.5-2.1,1.4-2.8c1.2-0.7,2.6-1.1,3.9-1c1.1,0,2.2,0.2,3.3,0.5c0.7,0.2,1.1,1,0.9,1.8V25l0,0
		c-0.3,0.7-1.1,1-1.8,0.8c-0.3-0.1-0.6-0.2-0.8-0.3c-0.4-0.1-0.8-0.2-1.2-0.2c-1.4-0.1-2,0.2-2,0.9c0,0.4,0.2,0.7,0.5,0.9
		c0.7,0.4,1.5,0.8,2.3,1.1c0.8,0.3,1.6,0.7,2.3,1.2c0.5,0.3,0.8,0.8,1.1,1.3C150,31.2,150.2,31.8,150.2,32.4z"/>
	<path class="st0" d="M158.7,33.7c0.4,0,0.9-0.1,1.3-0.1c0.5-0.1,0.9,0.2,1,0.7v0.1v1c0,0.4-0.3,0.7-0.6,0.8
		c-0.9,0.3-1.8,0.4-2.7,0.4c-1.5,0-2.5-0.4-3.2-1.1c-0.7-0.9-1.1-2.1-1-3.3v-5.6c0-0.5-0.4-0.9-0.9-0.9l0,0c-0.5,0-0.9-0.4-0.9-0.9
		v-0.2c0-0.3,0.2-0.6,0.4-0.7l1.4-0.8c0.2-0.1,0.3-0.3,0.4-0.4l0.7-2c0.1-0.3,0.5-0.6,0.8-0.6h0.9c0.5,0,0.9,0.4,0.9,0.9v1.1
		c0,0.5,0.4,0.9,0.9,0.9h2c0.5,0,0.9,0.4,0.9,0.9v1c0,0.5-0.4,0.9-0.9,0.9h-2c-0.5,0-0.9,0.4-0.9,0.9v5.6c0,0.4,0.1,0.9,0.4,1.2
		C157.9,33.6,158.3,33.7,158.7,33.7z"/>
</g>
<g>
	<path class="st1" d="M49.2,51.8h-44c-1.6,0-3-1.3-3-3v-44c0-1.7,1.3-3,3-3h44c1.7,0,3,1.4,3,3v44C52.2,50.5,50.9,51.8,49.2,51.8z"
		/>
	<g>
		<path class="st2" d="M32.7,42.1c-0.4,0-0.7-0.1-1-0.4L19,28.9c-0.5-0.6-0.4-1.4,0.1-1.9c0.5-0.4,1.3-0.4,1.8,0l12.8,12.8
			c0.5,0.5,0.5,1.4,0,1.9C33.4,42,33.1,42.1,32.7,42.1L32.7,42.1z"/>
		<path class="st2" d="M45.3,41.5c-0.4,0-0.7-0.1-1-0.4l-18-18c-0.5-0.6-0.4-1.4,0.1-1.9c0.5-0.4,1.3-0.4,1.8,0l18,18
			c0.5,0.5,0.5,1.4,0,1.9C46,41.4,45.6,41.5,45.3,41.5L45.3,41.5z"/>
		<path class="st2" d="M38.9,42c-0.4,0-0.7-0.1-1-0.4L22.4,26c-0.5-0.6-0.4-1.4,0.2-1.9c0.5-0.4,1.2-0.4,1.7,0l15.6,15.6
			c0.5,0.5,0.5,1.4,0,1.9C39.6,41.9,39.3,42,38.9,42z"/>
		<path class="st2" d="M23.7,40.4C15.4,40.6,8.6,34,8.4,25.8c0-0.1,0-0.3,0-0.4c0-8.3,6.6-15,14.9-15h0.1c8.3,0,15,6.5,15,15.2
			c0,0.7-0.5,1.2-1.2,1.3h-0.1c-0.7,0-1.4-0.5-1.4-1.2l0,0c0-7.4-5.6-12.5-12.4-12.5c-6.7,0-12.2,5.5-12.2,12.2v0.1
			c0,6.8,5.1,12.4,12.6,12.4c0,0,1.5,0,1.6,1C25.4,40.2,23.7,40.4,23.7,40.4z"/>
	</g>
</g>
</svg>
