<?xml version="1.0" encoding="UTF-8" standalone="no"?><!DOCTYPE svg PUBLIC "-//W3C//DTD SVG 1.1//EN" "http://www.w3.org/Graphics/SVG/1.1/DTD/svg11.dtd"><svg width="100%" height="100%" viewBox="0 0 50 50" version="1.1" xmlns="http://www.w3.org/2000/svg" xmlns:xlink="http://www.w3.org/1999/xlink" xml:space="preserve" xmlns:serif="http://www.serif.com/" style="fill-rule:evenodd;clip-rule:evenodd;stroke-linejoin:round;stroke-miterlimit:1.41421;"><path id="fill" d="M11.524,38.513c1.746,1.707 3.149,3.146 3.11,3.185c-0.086,0.077 -9.498,3.139 -9.537,3.101c-0.059,-0.048 3.081,-9.394 3.156,-9.405c0.038,0 1.516,1.401 3.271,3.119m24.924,-24.828l3.766,3.777l-11.35,11.351l-11.349,11.35l-3.891,-3.882l-3.884,-3.891l11.323,-11.323c8.89,-8.888 11.351,-11.301 11.464,-11.235c0.086,0.048 1.85,1.784 3.921,3.853m4.96,-4.854l3.768,3.768l-1.414,1.401l-1.402,1.401l-3.881,-3.88l-3.881,-3.882l1.373,-1.383c1.058,-1.069 1.403,-1.355 1.516,-1.287c0.085,0.046 1.851,1.783 3.921,3.862m-4.665,-7.593c-0.268,0.172 -30.377,30.303 -30.502,30.521c-0.068,0.125 -0.124,0.297 -0.124,0.382c0,0.095 -1.117,3.502 -2.479,7.584c-1.365,4.082 -2.48,7.535 -2.48,7.667c0,0.392 0.371,1.05 0.704,1.259c0.202,0.114 0.486,0.191 0.754,0.191c0.314,0 2.49,-0.697 7.955,-2.536c7.257,-2.442 8.147,-2.787 8.317,-3.187c0.037,-0.075 5.637,-5.714 12.457,-12.513c18.16,-18.122 17.377,-17.321 17.453,-17.75c0.152,-0.792 0.22,-0.715 -5.36,-6.284c-2.881,-2.872 -5.351,-5.257 -5.494,-5.314c-0.325,-0.125 -1.02,-0.134 -1.201,-0.02" style="fill:none;"/></svg>